<svg xmlns="http://www.w3.org/2000/svg" width="33.544" height="30.935"><g data-name="グループ 9039"><g data-name="グループ 9038" transform="translate(2.897 3.656)"><path data-name="パス 43707" d="M27.862 1.816A8.59 8.59 0 0024.715.209a5.776 5.776 0 00-5.953 1.892 4.506 4.506 0 01-6.782.106A6.115 6.115 0 005.58.314a8.448 8.448 0 00-2.785 1.5c-5.188 4.319-1.683 14.362-1.057 16.132 1.806 5.093 5.368 9.321 7.383 9.323 1.512 0 2.436.05 3.645-4.814a4.274 4.274 0 011.7-2.582 1.436 1.436 0 011.519-.014 4.22 4.22 0 011.8 2.6c1.21 4.864 2.3 4.861 3.7 4.814 2.01-.067 5.6-4.23 7.4-9.323.634-1.772 4.165-11.815-1.023-16.134z" fill="#1391e6"/><path data-name="パス 43804" d="M11.374 13.021a3.626 3.626 0 007.252 0z" fill="#fff"/><path data-name="パス 43725" d="M-1.268 2.519a1.2 1.2 0 00.733.732l.211.061c.313.09.313.238 0 .327l-.211.061a1.2 1.2 0 00-.733.732l-.061.212c-.09.313-.238.313-.327 0l-.061-.212a1.194 1.194 0 00-.732-.732l-.212-.061c-.313-.09-.313-.238 0-.327l.212-.061a1.194 1.194 0 00.732-.732l.061-.212c.09-.313.238-.313.327 0z" fill="#1391e6"/><path data-name="パス 43727" d="M1.49-2.746a2.445 2.445 0 001.495 1.495l.433.124c.638.185.638.487 0 .671l-.433.124A2.445 2.445 0 001.49 1.163l-.124.432c-.184.639-.486.639-.669 0l-.125-.432A2.442 2.442 0 00-.923-.332l-.432-.124c-.638-.184-.638-.486 0-.671l.432-.124A2.442 2.442 0 00.572-2.746l.125-.432c.184-.639.486-.639.669 0z" fill="#1391e6"/><rect data-name="長方形 23377" width="2" height="4" rx="1" transform="translate(11 6.834)" fill="#fff"/><rect data-name="長方形 23378" width="2" height="4" rx="1" transform="translate(17 6.834)" fill="#fff"/></g></g></svg>