<svg xmlns="http://www.w3.org/2000/svg" width="375" height="32"><defs><clipPath id="a"><path data-name="長方形 23380" fill="#fff" stroke="#707070" d="M0 0h375v32H0z"/></clipPath></defs><g data-name="マスクグループ 3" clip-path="url(#a)"><path data-name="パス 43736" d="M1279.269 32H-.498V6.716c5.224 3.7 10.626 7.529 20.97 7.529 10.562 0 15.911-3.693 21.085-7.265C46.757 3.39 51.667 0 61.737 0S76.72 3.39 81.92 6.98c5.174 3.572 10.525 7.265 21.089 7.265s15.914-3.693 21.088-7.265C129.297 3.39 134.208 0 144.28 0s14.982 3.39 20.181 6.98c5.174 3.572 10.524 7.265 21.086 7.265s15.912-3.693 21.085-7.265c5.2-3.59 10.11-6.98 20.18-6.98s14.984 3.39 20.183 6.98c5.174 3.572 10.524 7.265 21.088 7.265s15.914-3.693 21.088-7.265c5.2-3.59 10.111-6.98 20.183-6.98s14.981 3.39 20.181 6.98c5.173 3.572 10.523 7.265 21.085 7.265s15.912-3.693 21.085-7.265c5.2-3.59 10.11-6.98 20.18-6.98s14.984 3.39 20.183 6.98c5.174 3.572 10.524 7.265 21.088 7.265s15.914-3.693 21.088-7.265c5.2-3.59 10.111-6.98 20.183-6.98s14.981 3.39 20.181 6.98c5.173 3.572 10.523 7.265 21.086 7.265s15.911-3.693 21.085-7.265c5.2-3.59 10.11-6.98 20.18-6.98s14.984 3.39 20.183 6.98c5.174 3.572 10.524 7.265 21.088 7.265s15.914-3.693 21.088-7.265C624.518 3.39 629.43 0 639.501 0s14.982 3.39 20.181 6.98c5.173 3.572 10.523 7.265 21.086 7.265s15.911-3.693 21.084-7.265c5.2-3.59 10.11-6.98 20.181-6.98s14.983 3.39 20.183 6.98c5.174 3.572 10.525 7.265 21.088 7.265s15.915-3.693 21.089-7.265c5.2-3.59 10.111-6.98 20.183-6.98s14.982 3.39 20.181 6.98c5.174 3.572 10.524 7.265 21.086 7.265s15.911-3.693 21.085-7.265c5.2-3.59 10.11-6.98 20.18-6.98s14.983 3.39 20.183 6.98c5.174 3.572 10.525 7.265 21.089 7.265s15.914-3.693 21.088-7.265c5.2-3.59 10.111-6.98 20.184-6.98s14.981 3.39 20.18 6.98c5.174 3.572 10.524 7.265 21.086 7.265s15.912-3.693 21.085-7.265c5.2-3.59 10.11-6.98 20.18-6.98s14.984 3.39 20.183 6.98c5.174 3.572 10.524 7.265 21.088 7.265s15.914-3.693 21.088-7.265c5.2-3.59 10.111-6.98 20.183-6.98s14.981 3.39 20.18 6.98c5.174 3.572 10.524 7.265 21.086 7.265s15.912-3.693 21.085-7.265c5.2-3.59 10.11-6.98 20.18-6.98s14.984 3.39 20.183 6.98c5.174 3.572 10.524 7.265 21.088 7.265 10.345 0 15.748-3.827 20.973-7.529z" fill="#dff1fd"/></g></svg>